<?xml version="1.0" standalone="no"?>
<!DOCTYPE svg PUBLIC "-//W3C//DTD SVG 20010904//EN"
 "http://www.w3.org/TR/2001/REC-SVG-20010904/DTD/svg10.dtd">
<svg version="1.0" xmlns="http://www.w3.org/2000/svg"
 width="700.000000pt" height="700.000000pt" viewBox="0 0 700.000000 700.000000"
 preserveAspectRatio="xMidYMid meet">
<metadata>
Created by potrace 1.11, written by Peter Selinger 2001-2013
</metadata>
<g transform="translate(0.000000,700.000000) scale(0.100000,-0.100000)"
fill="#000000" stroke="none">
<path d="M6203 6986 c-22 -10 -42 -32 -60 -66 -36 -67 -150 -227 -221 -310
-119 -140 -337 -340 -492 -453 -36 -26 -69 -51 -75 -55 -93 -74 -370 -228
-585 -325 -203 -92 -499 -187 -755 -243 -162 -35 -186 -39 -270 -49 -22 -3
-47 -7 -55 -10 -8 -2 -37 -7 -65 -10 -27 -3 -66 -7 -85 -10 -19 -2 -57 -7 -85
-10 -190 -22 -455 -95 -657 -181 -307 -131 -599 -348 -794 -590 -21 -27 -42
-51 -45 -54 -19 -16 -154 -228 -192 -300 -108 -209 -197 -482 -223 -685 -3
-22 -8 -51 -11 -65 -9 -45 -11 -393 -2 -465 20 -166 39 -258 79 -393 47 -158
127 -339 215 -490 22 -38 23 -43 8 -49 -9 -3 -41 -22 -72 -41 -31 -19 -72 -44
-91 -55 -47 -29 -269 -175 -283 -188 -7 -5 -61 -46 -120 -90 -478 -360 -792
-798 -922 -1287 -28 -105 -53 -229 -60 -297 -3 -27 -8 -62 -11 -77 -8 -39 31
-103 73 -123 56 -27 125 -9 157 41 18 27 20 35 31 118 24 192 109 437 217 629
151 267 414 553 728 792 36 27 70 53 75 58 59 50 436 297 452 297 5 0 63 -53
128 -118 212 -208 416 -341 725 -475 145 -62 435 -133 620 -152 36 -4 74 -9
85 -11 25 -5 370 -5 410 0 17 2 64 7 105 11 193 18 525 100 685 170 17 8 53
23 82 34 28 11 100 45 160 75 101 52 127 67 250 140 54 33 289 208 343 256 92
82 225 219 310 316 55 63 188 248 250 346 75 119 212 387 258 503 17 44 37 94
43 110 7 17 13 35 15 40 2 6 17 51 34 100 36 106 126 449 135 517 1 13 8 55
14 93 24 141 29 177 37 260 3 33 7 76 9 95 19 172 25 587 11 815 -6 114 -8
143 -21 260 -2 28 -7 76 -11 108 -3 32 -7 67 -9 77 -2 10 -6 45 -10 77 -3 32
-8 65 -10 73 -2 8 -7 35 -10 60 -2 25 -7 55 -9 66 -2 12 -7 39 -10 60 -24 155
-94 489 -128 609 -6 22 -17 65 -23 95 -7 30 -23 89 -34 130 -12 41 -31 111
-42 155 -12 44 -27 88 -34 98 -35 50 -105 68 -162 43z"/>
</g>
</svg>
